<svg width="21" height="21" viewBox="0 0 21 21" fill="none" xmlns="http://www.w3.org/2000/svg">
<path d="M19.893 10.0216C19.0867 8.09995 18.1272 6.53276 17.0144 5.32L15.8474 6.64018C16.7991 7.66897 17.628 9.01483 18.3448 10.691C16.4364 15.159 13.7275 17.2815 10.0255 17.2815C8.91427 17.2815 7.89074 17.0879 6.95491 16.7008L5.69039 18.1312C6.99016 18.8102 8.43519 19.1497 10.0255 19.1497C14.434 19.1497 17.7232 16.5524 19.893 11.3578C19.9803 11.1489 20.0255 10.9207 20.0255 10.6897C20.0255 10.4587 19.9803 10.2305 19.893 10.0216V10.0216ZM18.4349 1.70198L17.4571 0.59457C17.4401 0.575271 17.4198 0.55996 17.3976 0.549514C17.3753 0.539068 17.3514 0.533691 17.3273 0.533691C17.3032 0.533691 17.2793 0.539068 17.257 0.549514C17.2348 0.55996 17.2145 0.575271 17.1975 0.59457L14.6888 3.43108C13.3057 2.63191 11.7513 2.23233 10.0255 2.23233C5.61699 2.23233 2.32781 4.82961 0.157964 10.0242C0.0707461 10.2331 0.0255127 10.4612 0.0255127 10.6923C0.0255127 10.9233 0.0707461 11.1515 0.157964 11.3604C1.02483 13.4258 2.06847 15.0813 3.28888 16.3269L0.861674 19.0718C0.827287 19.1107 0.807971 19.1635 0.807971 19.2185C0.807971 19.2736 0.827287 19.3263 0.861674 19.3653L1.84086 20.4729C1.87527 20.5118 1.92192 20.5337 1.97057 20.5337C2.01921 20.5337 2.06587 20.5118 2.10028 20.4729L18.4349 1.9957C18.452 1.97642 18.4655 1.95353 18.4748 1.92833C18.484 1.90313 18.4887 1.87612 18.4887 1.84884C18.4887 1.82156 18.484 1.79455 18.4748 1.76935C18.4655 1.74415 18.452 1.72126 18.4349 1.70198ZM1.70622 10.691C3.61688 6.22295 6.32575 4.1005 10.0255 4.1005C11.2765 4.1005 12.4139 4.34337 13.4459 4.83713L11.8334 6.66119C11.0698 6.20028 10.1954 6.02923 9.33923 6.17325C8.4831 6.31728 7.69056 6.76877 7.07852 7.46111C6.46649 8.15346 6.06737 9.04999 5.94005 10.0185C5.81273 10.9869 5.96395 11.9761 6.37139 12.8399L4.45798 15.0044C3.39897 13.9471 2.48608 12.5145 1.70622 10.691ZM7.3648 10.691C7.3652 10.2335 7.461 9.78248 7.64443 9.3747C7.82785 8.96692 8.09372 8.61384 8.42043 8.34413C8.74715 8.07442 9.1255 7.8957 9.52475 7.82248C9.924 7.74926 10.3329 7.7836 10.7182 7.92273L7.48659 11.5784C7.40559 11.2915 7.36451 10.9921 7.3648 10.691V10.691Z" fill="black"/>
<path d="M9.9337 13.597C9.85434 13.597 9.77613 13.5929 9.6986 13.5848L8.48706 14.9553C9.21575 15.271 10.0097 15.3412 10.7729 15.1573C11.536 14.9734 12.2358 14.5435 12.7876 13.9193C13.3393 13.2951 13.7194 12.5036 13.882 11.6402C14.0445 10.7769 13.9825 9.87881 13.7034 9.0545L12.4919 10.425C12.499 10.5127 12.5027 10.6012 12.5027 10.691C12.5028 11.0727 12.4365 11.4506 12.3075 11.8033C12.1784 12.156 11.9892 12.4764 11.7506 12.7463C11.512 13.0162 11.2288 13.2303 10.917 13.3762C10.6053 13.5222 10.2711 13.5972 9.9337 13.597V13.597Z" fill="black"/>
</svg>
