<svg width="21" height="20" viewBox="0 0 21 20" fill="none" xmlns="http://www.w3.org/2000/svg">
<path d="M19.8931 9.20859C17.7186 3.08282 14.4317 0 10.0255 0C5.617 0 2.3324 3.08282 0.157964 9.21166C0.0707462 9.45864 0.0255127 9.72839 0.0255127 10.0015C0.0255127 10.2747 0.0707462 10.5444 0.157964 10.7914C2.3324 16.9172 5.61929 20 10.0255 20C14.434 20 17.7186 16.9172 19.8931 10.7883C20.0697 10.2914 20.0697 9.71472 19.8931 9.20859V9.20859ZM10.0255 17.7914C6.32575 17.7914 3.61688 15.2822 1.70622 10C3.61688 4.71779 6.32575 2.20859 10.0255 2.20859C13.7253 2.20859 16.4341 4.71779 18.3448 10C16.4364 15.2822 13.7276 17.7914 10.0255 17.7914ZM9.93376 4.60123C7.70427 4.60123 5.89683 7.01841 5.89683 10C5.89683 12.9816 7.70427 15.3988 9.93376 15.3988C12.1632 15.3988 13.9707 12.9816 13.9707 10C13.9707 7.01841 12.1632 4.60123 9.93376 4.60123ZM9.93376 13.4356C8.51395 13.4356 7.3648 11.8988 7.3648 10C7.3648 8.10123 8.51395 6.56442 9.93376 6.56442C11.3536 6.56442 12.5027 8.10123 12.5027 10C12.5027 11.8988 11.3536 13.4356 9.93376 13.4356Z" fill="black"/>
</svg>
