<?xml version="1.0" encoding="utf-8"?>
<!-- Generator: Adobe Illustrator 21.0.1, SVG Export Plug-In . SVG Version: 6.00 Build 0)  -->
<svg version="1.1" id="Слой_1" xmlns="http://www.w3.org/2000/svg" xmlns:xlink="http://www.w3.org/1999/xlink" x="0px" y="0px"
	 viewBox="0 0 20 18" style="enable-background:new 0 0 20 18;" xml:space="preserve">
<style type="text/css">
	.st0{fill:#51545D;}
</style>
<path class="st0" d="M19.7,6.2C19.7,6.1,19.7,6.1,19.7,6.2c-0.1-0.2-0.1-0.3-0.2-0.4c0,0,0,0,0,0c-0.1-0.1-0.1-0.1-0.2-0.2l-8.8-5
	c-0.3-0.2-0.7-0.2-1,0l-8.8,5C0.4,5.8,0.3,6.1,0.3,6.5s0.2,0.7,0.5,0.9l2.6,1.5v4.5c0,0.4,0.2,0.7,0.5,0.9l5.6,3.1c0,0,0,0,0.1,0
	c0,0,0.1,0,0.1,0c0.1,0,0.2,0.1,0.3,0.1s0.2,0,0.3-0.1c0,0,0.1,0,0.1,0c0,0,0,0,0.1,0l5.6-3.1c0.3-0.2,0.5-0.5,0.5-0.9V8.9l1.1-0.6
	v5.2c0,0.6,0.4,1,1,1s1-0.4,1-1V6.5C19.8,6.4,19.7,6.3,19.7,6.2z M5.4,10L9,12.1v2.7l-3.6-2V10z M14.6,12.8l-3.6,2v-2.7l3.6-2.1
	V12.8z M10,10.3L3.3,6.5L10,2.7l6.7,3.8L10,10.3z"/>
</svg>
